<?xml version="1.0" standalone="no"?>
<!DOCTYPE svg PUBLIC "-//W3C//DTD SVG 20010904//EN"
 "http://www.w3.org/TR/2001/REC-SVG-20010904/DTD/svg10.dtd">
<svg version="1.0" xmlns="http://www.w3.org/2000/svg"
 width="225.000000pt" height="225.000000pt" viewBox="0 0 225.000000 225.000000"
 preserveAspectRatio="xMidYMid meet">

<g transform="translate(0.000000,225.000000) scale(0.100000,-0.100000)"
fill="#7d2ae8" stroke="none">
<path d="M906 2014 c-340 -62 -617 -258 -740 -526 -34 -72 -66 -199 -66 -258
l0 -30 150 0 150 0 39 79 c74 145 198 291 325 378 l51 35 -42 -7 c-24 -4 -43
-4 -43 -2 0 14 122 80 179 97 65 21 141 27 141 12 0 -5 -9 -17 -20 -27 -11
-10 -25 -33 -32 -51 l-12 -34 -23 22 -23 22 -52 -55 c-113 -119 -170 -243
-169 -369 0 -38 -4 -70 -8 -70 -4 0 -30 7 -57 15 -27 8 -50 15 -52 15 -7 0 28
-58 42 -69 9 -8 16 -17 16 -22 0 -5 -126 -9 -280 -9 l-280 0 0 -125 0 -125
1025 0 1025 0 0 125 0 125 -244 0 c-192 0 -246 3 -255 14 -14 17 102 26 336
26 l163 0 0 30 c0 100 -60 273 -131 377 -35 52 -147 173 -160 173 -4 0 -13
-15 -19 -34 -11 -34 -11 -35 -31 -15 -10 10 -23 19 -28 19 -15 0 -148 -147
-177 -195 -51 -88 -76 -172 -76 -263 -1 -72 -3 -82 -17 -76 -80 32 -90 30 -67
-15 9 -16 16 -32 16 -36 0 -3 -47 -5 -105 -5 -58 0 -105 2 -105 5 0 3 7 22 15
42 20 47 20 46 -16 28 -17 -9 -34 -15 -39 -13 -16 6 66 162 128 244 66 87 134
150 240 222 l67 45 -60 -6 -60 -7 25 21 c35 30 116 69 179 88 l53 16 -88 47
c-108 57 -239 102 -358 123 -110 19 -322 18 -430 -1z m518 -231 c-13 -20 -27
-47 -30 -60 l-6 -24 -23 21 -23 21 -51 -52 c-105 -106 -161 -231 -169 -372 -4
-75 -7 -87 -21 -83 -58 17 -104 27 -107 23 -2 -2 9 -22 26 -45 16 -23 30 -44
30 -47 0 -3 -49 -5 -110 -5 -60 0 -110 2 -110 5 0 3 9 24 20 46 l21 40 -31
-16 c-18 -9 -34 -14 -37 -11 -9 9 27 102 62 161 69 114 177 219 311 301 54 33
56 35 24 29 -19 -3 -43 -9 -52 -11 -45 -13 7 41 72 76 42 22 112 38 172 39
l57 1 -25 -37z m-1139 -758 l0 -100 -37 -3 c-26 -2 -38 1 -38 9 0 10 -3 10
-12 1 -7 -7 -24 -12 -38 -12 -14 0 -31 5 -38 12 -13 13 -17 179 -5 191 3 4 43
6 87 4 l81 -2 0 -100z m93 3 l-3 -103 -35 0 -35 0 -3 103 -3 102 41 0 41 0 -3
-102z m93 90 c0 -10 2 -10 6 0 2 7 22 12 44 12 24 0 39 -5 39 -12 0 -10 2 -10
8 -1 10 16 133 14 155 -2 15 -11 17 -26 15 -101 l-3 -89 -37 -3 c-26 -2 -38 1
-38 9 0 10 -3 10 -12 1 -15 -15 -65 -16 -74 -1 -4 8 -9 8 -17 0 -14 -14 -64
-14 -72 -1 -5 8 -11 7 -20 0 -8 -6 -26 -10 -42 -8 l-28 3 -3 103 -3 102 41 0
c25 0 40 -5 41 -12z m357 -90 l-3 -103 -35 0 -35 0 -3 83 c-3 81 2 94 26 70
10 -10 15 -10 22 2 5 8 10 23 10 33 0 9 5 17 10 17 7 0 10 -37 8 -102z m90 0
l-3 -103 -35 0 -35 0 -3 103 -3 102 41 0 41 0 -3 -102z m182 87 c6 -8 10 -48
8 -102 l-3 -88 -29 -3 c-16 -2 -33 1 -39 7 -7 7 -14 7 -23 0 -7 -6 -28 -9 -46
-7 l-33 3 -3 89 c-2 49 -1 95 2 102 7 18 151 17 166 -1z m190 4 c0 -9 4 -9 14
0 8 7 46 10 98 8 84 -2 85 -3 133 -45 26 -23 51 -42 54 -42 4 0 15 19 26 42
19 40 23 42 68 46 28 2 54 -2 63 -9 10 -8 14 -8 14 0 0 6 17 11 40 11 l41 0
-3 -102 -3 -103 -33 -3 c-28 -3 -35 1 -39 19 -6 22 -6 22 -14 2 -7 -20 -15
-21 -131 -21 -68 0 -129 5 -135 10 -9 7 -13 7 -13 -1 0 -15 -63 -14 -78 1 -9
9 -12 9 -12 0 0 -15 -66 -16 -75 -2 -5 8 -11 7 -20 0 -8 -6 -26 -10 -42 -8
-28 3 -28 4 -28 68 1 36 4 82 8 103 7 33 11 37 37 37 17 0 30 -5 30 -11z m638
-91 l-3 -103 -35 0 -35 0 -3 103 -3 102 41 0 41 0 -3 -102z m97 -3 l0 -100
-40 0 -40 0 -3 89 c-2 49 0 96 3 103 3 10 17 13 42 11 l38 -3 0 -100z m93 3
l-3 -103 -35 0 -35 0 -3 103 -3 102 41 0 41 0 -3 -102z m-920 -42 l-3 -61 -35
0 -35 0 -3 88 -3 88 41 -27 41 -27 -3 -61z"/>
<path d="M1821 1843 l-24 -5 29 -23 28 -22 18 22 c10 13 18 26 18 29 0 7 -31
6 -69 -1z"/>
<path d="M1146 833 c-13 -46 -17 -93 -8 -93 5 0 13 17 16 38 4 20 9 45 12 55
3 9 1 17 -5 17 -5 0 -12 -8 -15 -17z"/>
<path d="M1863 800 c-6 -27 -8 -52 -5 -55 8 -8 156 -6 169 3 7 4 16 23 19 41
7 32 6 32 -26 29 -19 -2 -35 -9 -38 -16 -3 -9 3 -11 23 -6 23 6 26 4 23 -12
-3 -16 -14 -19 -76 -22 l-73 -3 6 46 c10 62 -10 58 -22 -5z"/>
<path d="M1308 823 c-20 -3 -28 -12 -33 -34 -8 -38 -34 -39 -32 -2 2 22 -3 29
-20 31 -28 4 -56 -44 -35 -57 7 -4 10 -15 6 -24 -4 -12 -1 -17 10 -17 9 0 16
5 16 10 0 6 32 10 75 10 74 0 75 0 75 26 0 28 -16 65 -28 63 -4 -1 -19 -4 -34
-6z m8 -29 c-3 -9 -6 -20 -6 -25 0 -5 -4 -9 -10 -9 -11 0 -14 33 -3 43 12 13
25 7 19 -9z m34 -15 c0 -10 -6 -19 -14 -19 -9 0 -12 8 -8 25 5 28 22 24 22 -6z
m-120 12 c0 -12 -20 -25 -27 -18 -7 7 6 27 18 27 5 0 9 -4 9 -9z"/>
<path d="M250 808 c0 -7 -3 -30 -6 -50 l-7 -38 47 0 c32 0 46 4 46 13 0 9 10
12 30 9 25 -4 31 0 40 23 12 32 13 55 1 55 -5 0 -11 -13 -14 -30 -5 -22 -12
-30 -28 -30 -17 0 -20 5 -17 25 7 35 -10 42 -18 8 -10 -49 -13 -53 -38 -53
-22 0 -24 3 -19 40 4 26 2 40 -6 40 -6 0 -11 -6 -11 -12z"/>
<path d="M440 811 c0 -6 7 -11 16 -11 24 0 12 -35 -14 -38 -12 -2 -22 -7 -22
-11 0 -10 218 -12 224 -3 2 4 7 22 11 40 6 31 5 32 -24 32 -27 0 -32 -4 -37
-30 -6 -28 -9 -30 -56 -30 -48 0 -49 1 -46 28 3 23 -1 27 -24 30 -16 2 -28 -1
-28 -7z m192 -26 c-2 -14 -8 -25 -13 -25 -10 0 -12 34 -2 43 13 14 20 6 15
-18z"/>
<path d="M685 800 c-17 -19 -17 -21 -2 -38 12 -13 14 -21 6 -29 -7 -7 -7 -13
-1 -17 5 -3 15 1 22 9 8 10 31 15 71 15 62 0 79 13 79 59 0 32 -17 25 -23 -9
-6 -28 -10 -30 -51 -30 -41 0 -45 2 -48 27 -4 34 -28 40 -53 13z m35 -15 c0
-8 -7 -15 -15 -15 -16 0 -20 12 -8 23 11 12 23 8 23 -8z"/>
<path d="M926 789 c-3 -18 -6 -42 -6 -56 0 -23 3 -24 48 -21 40 3 47 6 50 26
2 15 -2 22 -13 22 -25 0 -14 34 13 38 32 5 27 24 -5 20 -19 -2 -30 -12 -40
-36 -12 -31 -12 -33 9 -42 21 -8 20 -9 -10 -9 -34 -1 -34 -1 -27 38 8 46 -10
65 -19 20z"/>
<path d="M1080 801 c0 -10 -10 -30 -21 -45 -25 -32 -17 -48 11 -20 23 22 38
84 21 84 -6 0 -11 -8 -11 -19z"/>
<path d="M1445 808 c-11 -29 -9 -61 3 -65 7 -3 13 1 11 8 -4 30 1 59 10 59 6
0 11 -15 13 -32 l3 -33 160 -1 c96 -1 165 2 173 8 6 6 12 24 12 40 0 26 -3 29
-27 26 -20 -2 -29 -10 -33 -28 -5 -22 -12 -25 -59 -28 -49 -3 -52 -2 -42 17
19 34 13 41 -35 41 -37 0 -45 -3 -40 -15 3 -8 9 -22 12 -30 5 -12 -4 -15 -50
-15 -56 0 -56 0 -56 30 0 25 -4 30 -25 30 -14 0 -28 -6 -30 -12z m365 -17 c0
-11 -4 -23 -10 -26 -6 -4 -10 5 -10 19 0 14 5 26 10 26 6 0 10 -9 10 -19z
m-157 -6 c-6 -17 -25 -15 -31 3 -2 7 5 12 17 12 14 0 19 -5 14 -15z"/>
<path d="M251 590 c-6 -28 -11 -53 -11 -55 0 -3 56 -5 124 -5 131 0 136 2 136
51 0 14 -7 19 -29 19 -30 0 -49 -15 -36 -28 4 -4 10 -1 12 6 7 20 33 14 33 -8
0 -21 -33 -35 -67 -28 -13 3 -17 12 -16 31 2 36 -12 34 -26 -3 -8 -25 -15 -30
-43 -30 -51 0 -61 11 -53 59 10 60 -11 52 -24 -9z"/>
<path d="M684 595 c-5 -36 -11 -46 -29 -51 -44 -11 -70 -1 -70 26 0 20 -5 25
-24 25 -33 0 -52 -32 -29 -49 13 -10 14 -16 6 -24 -19 -19 0 -27 20 -9 13 12
36 17 75 17 60 0 60 -1 73 73 4 23 2 37 -4 37 -6 0 -14 -20 -18 -45z m-123
-38 c-16 -16 -26 0 -10 19 9 11 15 12 17 4 2 -6 -1 -17 -7 -23z"/>
<path d="M895 630 c-3 -5 -1 -10 4 -10 6 0 11 5 11 10 0 6 -2 10 -4 10 -3 0
-8 -4 -11 -10z"/>
<path d="M935 630 c-3 -5 1 -24 10 -41 18 -35 10 -53 -21 -47 -14 3 -18 12
-17 32 2 34 -19 30 -27 -5 -5 -20 -13 -25 -48 -27 -41 -3 -42 -2 -42 27 0 26
-4 31 -25 31 -33 0 -55 -38 -32 -55 12 -8 13 -15 6 -22 -7 -7 -7 -13 -1 -17 5
-3 15 1 22 9 10 12 47 15 206 15 106 0 195 3 197 8 3 4 8 30 12 57 9 59 -5 53
-20 -8 -14 -53 -45 -65 -45 -18 0 40 -16 40 -23 1 -6 -28 -9 -30 -52 -30 -42
0 -46 2 -60 36 -18 45 -18 44 0 44 8 0 15 5 15 10 0 13 -47 13 -55 0z m-168
-77 c-3 -3 -11 -2 -17 2 -8 5 -7 11 2 22 12 15 13 14 16 -1 2 -10 1 -20 -1
-23z"/>
<path d="M1080 630 c0 -5 5 -10 10 -10 6 0 10 5 10 10 0 6 -4 10 -10 10 -5 0
-10 -4 -10 -10z"/>
<path d="M1110 630 c0 -5 5 -10 10 -10 6 0 10 5 10 10 0 6 -4 10 -10 10 -5 0
-10 -4 -10 -10z"/>
<path d="M1217 633 c-3 -5 -8 -29 -12 -55 -9 -58 9 -67 19 -10 4 20 9 45 12
55 5 17 -10 24 -19 10z"/>
<path d="M1674 595 c-5 -36 -11 -46 -29 -51 -44 -11 -70 -1 -70 26 0 30 -35
39 -55 15 -11 -13 -11 -21 -2 -35 6 -11 9 -26 6 -35 -8 -19 10 -20 26 0 10 13
51 15 250 15 l238 0 6 38 c4 20 9 45 12 55 3 9 1 17 -5 17 -6 0 -16 -20 -22
-45 -12 -48 -25 -63 -40 -48 -6 6 -6 25 0 52 6 30 6 41 -2 38 -6 -2 -16 -23
-22 -48 -10 -42 -13 -44 -49 -47 -49 -4 -74 4 -58 20 25 25 13 38 -33 38 -44
0 -44 0 -35 -26 6 -14 10 -27 10 -30 0 -3 -24 -4 -52 -2 l-53 3 2 48 c4 60
-14 62 -23 2z m-123 -38 c-16 -16 -26 0 -10 19 9 11 15 12 17 4 2 -6 -1 -17
-7 -23z m293 25 c8 -13 -11 -35 -23 -28 -16 10 -14 36 3 36 8 0 17 -4 20 -8z"/>
<path d="M1262 588 c-15 -15 -16 -48 -1 -48 6 0 8 -9 4 -20 -9 -27 10 -25 29
2 23 32 21 78 -2 78 -10 0 -23 -5 -30 -12z m30 -30 c-15 -15 -26 -4 -18 18 5
13 9 15 18 6 9 -9 9 -15 0 -24z"/>
<path d="M1430 581 c0 -11 -9 -26 -19 -33 -20 -14 -40 -88 -24 -88 5 0 13 15
18 33 8 25 16 33 40 35 33 4 45 16 45 50 0 18 -6 22 -30 22 -23 0 -30 -5 -30
-19z m40 -11 c0 -11 -7 -20 -15 -20 -17 0 -18 2 -9 24 9 23 24 20 24 -4z"/>
<path d="M340 499 c0 -5 5 -7 10 -4 6 3 10 8 10 11 0 2 -4 4 -10 4 -5 0 -10
-5 -10 -11z"/>
<path d="M370 500 c0 -5 5 -10 10 -10 6 0 10 5 10 10 0 6 -4 10 -10 10 -5 0
-10 -4 -10 -10z"/>
<path d="M445 500 c-3 -5 -1 -10 4 -10 6 0 11 5 11 10 0 6 -2 10 -4 10 -3 0
-8 -4 -11 -10z"/>
<path d="M684 426 c-60 -27 -47 -88 29 -136 35 -22 47 -36 47 -54 0 -29 -21
-39 -66 -30 -35 6 -48 -8 -18 -20 51 -20 130 8 140 50 10 37 -9 69 -57 95 -54
30 -68 52 -49 74 10 12 23 15 47 12 37 -6 45 7 11 17 -33 8 -49 7 -84 -8z"/>
<path d="M1435 434 c-5 -1 -23 -5 -40 -9 -26 -6 -27 -8 -12 -16 14 -9 17 -26
17 -114 0 -105 0 -105 25 -105 22 0 24 4 27 58 l3 57 48 3 47 3 0 -60 c0 -58
1 -61 25 -61 l25 0 0 120 0 120 -25 0 c-24 0 -25 -3 -25 -56 l0 -55 -47 3 -48
3 -5 56 c-3 31 -9 55 -15 53z"/>
<path d="M225 420 c-16 -7 -16 -9 -4 -9 24 -1 29 -22 29 -111 0 -73 2 -80 26
-99 38 -30 98 -28 129 4 23 22 25 31 25 125 0 60 -4 100 -10 100 -6 0 -10 -37
-10 -91 0 -50 -4 -99 -10 -109 -14 -27 -58 -35 -81 -14 -16 15 -19 32 -19 116
l0 98 -27 -1 c-16 0 -37 -4 -48 -9z"/>
<path d="M1011 403 c0 -17 3 -22 6 -13 8 19 23 30 46 30 15 0 17 -12 17 -115
l0 -115 30 0 30 0 0 115 c0 107 1 115 20 115 10 0 24 -8 29 -17 9 -16 10 -16
11 5 0 21 -3 22 -95 22 l-95 0 1 -27z"/>
<path d="M1823 419 c14 -9 17 -26 17 -119 l0 -110 70 0 c80 0 118 14 126 47 7
27 -19 73 -41 73 -21 0 -19 13 5 28 30 18 27 66 -5 80 -33 15 -198 16 -172 1z
m131 -12 c26 -19 17 -59 -17 -75 -37 -18 -47 -9 -47 44 0 39 2 44 23 44 13 0
31 -6 41 -13z m7 -107 c22 -12 26 -59 7 -78 -7 -7 -27 -12 -45 -12 -33 0 -33
0 -33 50 0 47 2 50 26 50 14 0 34 -5 45 -10z"/>
</g>
</svg>
